<svg xmlns="http://www.w3.org/2000/svg" version="1.1" xmlns:xlink="http://www.w3.org/1999/xlink" xmlns:svgjs="http://svgjs.dev/svgjs" width="1000" height="404" viewBox="0 0 1000 404"><g transform="matrix(1,0,0,1,-0.6060606060606233,0.3960863887493531)"><svg viewBox="0 0 396 160" data-background-color="#fafafa" preserveAspectRatio="xMidYMid meet" height="404" width="1000" xmlns="http://www.w3.org/2000/svg" xmlns:xlink="http://www.w3.org/1999/xlink"><g id="tight-bounds" transform="matrix(1,0,0,1,0.2400000000000091,-0.15686589653439853)"><svg viewBox="0 0 395.52 160.3137317930688" height="160.3137317930688" width="395.52"><g><svg viewBox="0 0 395.52 160.3137317930688" height="160.3137317930688" width="395.52"><g><svg viewBox="0 0 395.52 160.3137317930688" height="160.3137317930688" width="395.52"><g id="textblocktransform"><svg viewBox="0 0 395.52 160.3137317930688" height="160.3137317930688" width="395.52" id="textblock"><g><svg viewBox="0 0 395.52 160.3137317930688" height="160.3137317930688" width="395.52"><g transform="matrix(1,0,0,1,0,0)"><svg width="395.52" viewBox="1.1 -36 99.54 40.35" height="160.3137317930688" data-palette-color="#000000"><path d="M10.95 4.35L10.95 4.35Q7.4 4.35 5.23 2.58 3.05 0.8 2.08-2 1.1-4.8 1.1-7.85L1.1-7.85Q1.1-11.8 2.3-15.8 3.5-19.8 5.58-23.43 7.65-27.05 10.3-29.88 12.95-32.7 15.88-34.33 18.8-35.95 21.65-35.95L21.65-35.95Q23.7-35.95 24.98-34.98 26.25-34 26.25-31.65L26.25-31.65Q26.25-30.2 25.75-28.38 25.25-26.55 24.4-24.88 23.55-23.2 22.53-22.1 21.5-21 20.45-21L20.45-21Q20.05-21 19.63-21.25 19.2-21.5 18.9-22.15L18.9-22.15Q19.65-23 20.58-24.28 21.5-25.55 22.35-26.98 23.2-28.4 23.73-29.78 24.25-31.15 24.25-32.2L24.25-32.2Q24.25-33.2 23.68-33.83 23.1-34.45 21.8-34.45L21.8-34.45Q19.65-34.45 17.32-32.7 15-30.95 12.83-28.03 10.65-25.1 8.9-21.5 7.15-17.9 6.13-14.15 5.1-10.4 5.1-7L5.1-7Q5.1-4.55 5.8-2.33 6.5-0.1 8.08 1.28 9.65 2.65 12.15 2.65L12.15 2.65Q14.8 2.65 17.43 1.15 20.05-0.35 22.25-2.8 24.45-5.25 25.75-8.1L25.75-8.1 26.45-7.6Q24.8-4.35 22.45-1.63 20.1 1.1 17.2 2.73 14.3 4.35 10.95 4.35ZM28.85 1.5L28.85 1.5Q26.7 1.5 25.77 0.03 24.85-1.45 24.85-3.65L24.85-3.65Q24.85-6.05 25.75-9.35 26.65-12.65 28.12-16.3 29.6-19.95 31.35-23.43 33.1-26.9 34.85-29.75 36.6-32.6 38.07-34.3 39.55-36 40.4-36L40.4-36Q40.95-36 41.3-35.38 41.65-34.75 41.85-33.88 42.05-33 42.05-32.3L42.05-32.3Q42.05-30.95 41.37-28.78 40.7-26.6 39.47-23.93 38.25-21.25 36.57-18.53 34.9-15.8 32.92-13.3 30.95-10.8 28.75-9L28.75-9Q28.45-7.65 28.27-6.38 28.1-5.1 28.1-3.95L28.1-3.95Q28.1-2 28.65-1.05 29.2-0.1 30.3-0.1L30.3-0.1Q31.65-0.1 32.97-1.3 34.3-2.5 35.47-4.33 36.65-6.15 37.5-8.1L37.5-8.1 38.25-7.7Q36.25-3.45 33.9-0.98 31.55 1.5 28.85 1.5ZM29.2-10.7L29.2-10.7Q30.95-12.45 32.6-14.73 34.25-17 35.67-19.45 37.1-21.9 38.2-24.2 39.3-26.5 39.9-28.33 40.5-30.15 40.5-31.15L40.5-31.15Q40.5-31.65 40.37-31.8 40.25-31.95 40.15-31.95L40.15-31.95Q39.75-31.95 38.77-30.68 37.8-29.4 36.5-27.25 35.2-25.1 33.85-22.35 32.5-19.6 31.27-16.6 30.05-13.6 29.2-10.7ZM40.1 1.3L40.1 1.3Q38.15 1.3 37.2 0.08 36.25-1.15 36.25-2.9L36.25-2.9Q36.25-4.05 36.67-5.8 37.1-7.55 37.8-9.47 38.5-11.4 39.42-13.1 40.35-14.8 41.4-15.88 42.45-16.95 43.45-16.95L43.45-16.95Q43.9-16.95 44.22-16.68 44.55-16.4 44.55-15.85L44.55-15.85Q44.55-15.25 43.77-13.9 43-12.55 41.95-10.8 40.9-9.05 40.12-7.13 39.35-5.2 39.35-3.45L39.35-3.45Q39.35-1.65 39.95-1.05 40.55-0.45 41.8-0.45L41.8-0.45Q43.5-0.45 45.42-2.15 47.35-3.85 49.5-8.1L49.5-8.1 49.95-7.6Q48.5-3.3 45.77-1 43.05 1.3 40.1 1.3ZM46.1-21.6L46.1-21.6Q45.3-21.6 44.67-22 44.05-22.4 44.05-23.25L44.05-23.25Q44.05-24.3 45.27-25.08 46.5-25.85 47.7-25.85L47.7-25.85Q48.45-25.85 48.9-25.5 49.35-25.15 49.35-24.3L49.35-24.3Q49.35-23.35 48.32-22.48 47.3-21.6 46.1-21.6ZM73.74 1.55L73.74 1.55Q71.99 1.55 71.19 0.48 70.39-0.6 70.39-2.1L70.39-2.1Q70.39-3.35 70.77-4.6 71.14-5.85 71.52-7.05 71.89-8.25 71.89-9.2L71.89-9.2Q71.89-10.2 71.44-10.6 70.99-11 70.44-11L70.44-11Q69.19-11 67.72-9.05 66.24-7.1 63.89-3.55L63.89-3.55Q63.09-2.35 62.54-1.13 61.99 0.1 61.49 1.1L61.49 1.1Q61.09 1.1 60.49 1 59.89 0.9 59.42 0.68 58.94 0.45 58.94 0.1L58.94 0.1Q58.94-0.25 59.42-1.58 59.89-2.9 60.52-4.67 61.14-6.45 61.62-8.28 62.09-10.1 62.09-11.4L62.09-11.4Q62.09-12.25 61.82-12.78 61.54-13.3 60.84-13.3L60.84-13.3Q59.74-13.3 58.19-11.98 56.64-10.65 54.99-8.5 53.34-6.35 51.87-3.78 50.39-1.2 49.49 1.35L49.49 1.35Q49.04 1.35 48.39 1.2 47.74 1.05 47.27 0.8 46.79 0.55 46.79 0.3L46.79 0.3Q46.79 0 47.32-1.48 47.84-2.95 48.52-5.03 49.19-7.1 49.72-9.25 50.24-11.4 50.24-13.05L50.24-13.05Q50.54-13.4 51.19-13.75 51.84-14.1 52.54-14.1L52.54-14.1Q53.24-14.1 53.57-13.75 53.89-13.4 53.89-12.8L53.89-12.8Q53.89-12.15 53.52-10.58 53.14-9 52.59-7.1L52.59-7.1Q53.59-8.7 54.87-10.38 56.14-12.05 57.54-13.45 58.94-14.85 60.37-15.73 61.79-16.6 63.14-16.6L63.14-16.6Q64.69-16.6 65.27-15.48 65.84-14.35 65.84-12.8L65.84-12.8Q65.84-11.55 65.57-10.18 65.29-8.8 64.94-7.63 64.59-6.45 64.29-5.75L64.29-5.75Q65.34-7.65 66.62-9.43 67.89-11.2 69.39-12.33 70.89-13.45 72.59-13.45L72.59-13.45Q74.19-13.45 74.82-12.5 75.44-11.55 75.44-10.25L75.44-10.25Q75.44-8.95 74.99-7.4 74.54-5.85 74.07-4.4 73.59-2.95 73.59-1.9L73.59-1.9Q73.59-1.25 73.92-0.73 74.24-0.2 75.09-0.2L75.09-0.2Q76.49-0.2 77.72-1.48 78.94-2.75 79.99-4.58 81.04-6.4 81.79-8.1L81.79-8.1 82.39-7.4Q81.59-5.3 80.34-3.23 79.09-1.15 77.42 0.2 75.74 1.55 73.74 1.55ZM84.29 1.6L84.29 1.6Q82.14 1.6 81.24 0.28 80.34-1.05 80.34-2.95L80.34-2.95Q80.34-4.5 80.84-6.15 81.34-7.8 82.17-9.25 82.99-10.7 84.02-11.6 85.04-12.5 86.09-12.5L86.09-12.5Q86.34-12.5 86.62-12.43 86.89-12.35 87.14-12.25L87.14-12.25Q86.69-11.85 86.06-10.78 85.44-9.7 84.89-8.33 84.34-6.95 83.97-5.6 83.59-4.25 83.59-3.3L83.59-3.3Q83.59-1.8 84.09-1.13 84.59-0.45 85.39-0.45L85.39-0.45Q86.44-0.45 87.89-1.58 89.34-2.7 90.74-4.45L90.74-4.45Q89.34-5.6 88.56-7.48 87.79-9.35 87.79-11.3L87.79-11.3Q87.79-12.95 88.37-14.4 88.94-15.85 90.04-16.73 91.14-17.6 92.69-17.6L92.69-17.6Q94.74-17.6 95.44-16.5 96.14-15.4 96.14-13.75L96.14-13.75Q96.14-11.8 95.19-9.43 94.24-7.05 92.79-4.85L92.79-4.85Q93.69-4.35 94.69-4.35L94.69-4.35Q95.49-4.35 96.49-4.67 97.49-5 98.47-5.8 99.44-6.6 100.04-7.95L100.04-7.95 100.64-7.45Q99.64-5.1 97.81-4.13 95.99-3.15 94.34-3.15L94.34-3.15Q93.69-3.15 93.09-3.28 92.49-3.4 91.94-3.65L91.94-3.65Q90.24-1.4 88.22 0.1 86.19 1.6 84.29 1.6ZM91.64-5.75L91.64-5.75Q92.89-7.6 93.72-9.63 94.54-11.65 94.54-13.45L94.54-13.45Q94.54-14.9 94.12-15.58 93.69-16.25 93.04-16.25L93.04-16.25Q92.04-16.25 90.99-14.8 89.94-13.35 89.94-11.15L89.94-11.15Q89.94-9.7 90.37-8.22 90.79-6.75 91.64-5.75Z" opacity="1" transform="matrix(1,0,0,1,0,0)" fill="#000000" class="undefined-text-0" data-fill-palette-color="primary" id="text-0"></path></svg></g></svg></g></svg></g></svg></g></svg></g><defs></defs></svg><rect width="395.52" height="160.3137317930688" fill="none" stroke="none" visibility="hidden"></rect></g></svg></g></svg>